<mxfile host="Electron" agent="Mozilla/5.0 (Windows NT 10.0; Win64; x64) AppleWebKit/537.36 (KHTML, like Gecko) draw.io/24.7.17 Chrome/128.0.6613.36 Electron/32.0.1 Safari/537.36" version="24.7.17">
  <diagram name="Page-1" id="sZ2jYWhIf5V467-SxP9Y">
    <mxGraphModel dx="1098" dy="828" grid="1" gridSize="10" guides="1" tooltips="1" connect="1" arrows="1" fold="1" page="1" pageScale="1" pageWidth="850" pageHeight="1100" math="0" shadow="0">
      <root>
        <mxCell id="0" />
        <mxCell id="1" parent="0" />
        <mxCell id="SYHLoigSp2c_G1k-SftJ-25" style="edgeStyle=orthogonalEdgeStyle;rounded=0;orthogonalLoop=1;jettySize=auto;html=1;" edge="1" parent="1" source="SYHLoigSp2c_G1k-SftJ-1" target="SYHLoigSp2c_G1k-SftJ-24">
          <mxGeometry relative="1" as="geometry" />
        </mxCell>
        <mxCell id="SYHLoigSp2c_G1k-SftJ-1" value="START" style="ellipse;whiteSpace=wrap;html=1;" vertex="1" parent="1">
          <mxGeometry x="365" y="170" width="120" height="80" as="geometry" />
        </mxCell>
        <mxCell id="SYHLoigSp2c_G1k-SftJ-14" value="END" style="ellipse;whiteSpace=wrap;html=1;" vertex="1" parent="1">
          <mxGeometry x="365" y="750" width="120" height="80" as="geometry" />
        </mxCell>
        <mxCell id="SYHLoigSp2c_G1k-SftJ-27" style="edgeStyle=orthogonalEdgeStyle;rounded=0;orthogonalLoop=1;jettySize=auto;html=1;entryX=0.5;entryY=0;entryDx=0;entryDy=0;" edge="1" parent="1" source="SYHLoigSp2c_G1k-SftJ-24" target="SYHLoigSp2c_G1k-SftJ-26">
          <mxGeometry relative="1" as="geometry" />
        </mxCell>
        <mxCell id="SYHLoigSp2c_G1k-SftJ-24" value="a" style="shape=parallelogram;perimeter=parallelogramPerimeter;whiteSpace=wrap;html=1;fixedSize=1;" vertex="1" parent="1">
          <mxGeometry x="365" y="330" width="120" height="60" as="geometry" />
        </mxCell>
        <mxCell id="SYHLoigSp2c_G1k-SftJ-26" value="a&amp;gt;5?" style="rhombus;whiteSpace=wrap;html=1;" vertex="1" parent="1">
          <mxGeometry x="385" y="460" width="80" height="80" as="geometry" />
        </mxCell>
        <mxCell id="SYHLoigSp2c_G1k-SftJ-28" value="&lt;span style=&quot;color: rgb(34, 34, 34); font-family: Roboto, sans-serif; font-size: 16px; text-align: start; white-space-collapse: preserve; background-color: rgb(255, 255, 255);&quot;&gt;đạt&lt;/span&gt;" style="shape=parallelogram;perimeter=parallelogramPerimeter;whiteSpace=wrap;html=1;fixedSize=1;" vertex="1" parent="1">
          <mxGeometry x="200" y="600" width="120" height="60" as="geometry" />
        </mxCell>
        <mxCell id="SYHLoigSp2c_G1k-SftJ-29" value="&lt;span style=&quot;color: rgb(34, 34, 34); font-family: Roboto, sans-serif; font-size: 16px; text-align: start; white-space-collapse: preserve; background-color: rgb(255, 255, 255);&quot;&gt;không đạt&lt;/span&gt;" style="shape=parallelogram;perimeter=parallelogramPerimeter;whiteSpace=wrap;html=1;fixedSize=1;" vertex="1" parent="1">
          <mxGeometry x="510" y="600" width="120" height="60" as="geometry" />
        </mxCell>
        <mxCell id="SYHLoigSp2c_G1k-SftJ-30" style="edgeStyle=orthogonalEdgeStyle;rounded=0;orthogonalLoop=1;jettySize=auto;html=1;entryX=0.558;entryY=-0.017;entryDx=0;entryDy=0;entryPerimeter=0;" edge="1" parent="1" source="SYHLoigSp2c_G1k-SftJ-26" target="SYHLoigSp2c_G1k-SftJ-28">
          <mxGeometry relative="1" as="geometry" />
        </mxCell>
        <mxCell id="SYHLoigSp2c_G1k-SftJ-31" style="edgeStyle=orthogonalEdgeStyle;rounded=0;orthogonalLoop=1;jettySize=auto;html=1;entryX=0.575;entryY=0;entryDx=0;entryDy=0;entryPerimeter=0;" edge="1" parent="1" source="SYHLoigSp2c_G1k-SftJ-26" target="SYHLoigSp2c_G1k-SftJ-29">
          <mxGeometry relative="1" as="geometry" />
        </mxCell>
        <mxCell id="SYHLoigSp2c_G1k-SftJ-32" value="YES" style="text;html=1;align=center;verticalAlign=middle;resizable=0;points=[];autosize=1;strokeColor=none;fillColor=none;" vertex="1" parent="1">
          <mxGeometry x="275" y="468" width="50" height="30" as="geometry" />
        </mxCell>
        <mxCell id="SYHLoigSp2c_G1k-SftJ-33" value="NO" style="text;html=1;align=center;verticalAlign=middle;resizable=0;points=[];autosize=1;strokeColor=none;fillColor=none;" vertex="1" parent="1">
          <mxGeometry x="500" y="468" width="40" height="30" as="geometry" />
        </mxCell>
        <mxCell id="SYHLoigSp2c_G1k-SftJ-34" style="edgeStyle=orthogonalEdgeStyle;rounded=0;orthogonalLoop=1;jettySize=auto;html=1;entryX=0.242;entryY=0.088;entryDx=0;entryDy=0;entryPerimeter=0;" edge="1" parent="1" source="SYHLoigSp2c_G1k-SftJ-28" target="SYHLoigSp2c_G1k-SftJ-14">
          <mxGeometry relative="1" as="geometry" />
        </mxCell>
        <mxCell id="SYHLoigSp2c_G1k-SftJ-35" style="edgeStyle=orthogonalEdgeStyle;rounded=0;orthogonalLoop=1;jettySize=auto;html=1;entryX=0.683;entryY=-0.012;entryDx=0;entryDy=0;entryPerimeter=0;" edge="1" parent="1" source="SYHLoigSp2c_G1k-SftJ-29" target="SYHLoigSp2c_G1k-SftJ-14">
          <mxGeometry relative="1" as="geometry" />
        </mxCell>
      </root>
    </mxGraphModel>
  </diagram>
</mxfile>
